<svg width="772" height="250" viewBox="0 0 772 250" fill="none" xmlns="http://www.w3.org/2000/svg">
<g clip-path="url(#clip0_3416_181592)">
<rect width="772" height="250" fill="#DEEDFF"/>
<path d="M501.929 227.581C585.266 221.751 652.094 206.596 651.193 193.73C650.292 180.864 582.002 175.159 498.665 180.989C415.327 186.818 348.499 201.973 349.4 214.839C350.301 227.705 418.591 233.41 501.929 227.581Z" fill="#C2E8FF"/>
<path d="M293.939 143.733C293.13 141.878 293.073 139.782 293.78 137.885C294.488 135.989 295.904 134.441 297.731 133.568L293.93 124.901C272.795 131.649 252.417 140.571 233.126 151.523L236.936 160.21C238.777 159.628 240.768 159.748 242.525 160.545C244.283 161.342 245.684 162.76 246.459 164.527C247.234 166.294 247.327 168.285 246.721 170.117C246.116 171.948 244.854 173.492 243.178 174.45L246.988 183.145C271.033 173.507 289.094 163.74 307.802 156.522L304.001 147.855C302.116 148.605 300.014 148.595 298.136 147.826C296.259 147.057 294.754 145.59 293.939 143.733Z" fill="#4DAFFF"/>
<path d="M337.747 83.1598C327.232 78.8998 325.355 85.4515 315.848 81.3116C305.453 76.7652 308.024 71.1468 297.51 66.8775C286.995 62.6083 282.63 68.624 274.02 65.0294C269.008 62.9317 267.269 59.4849 263.561 55.576L250.022 88.8706C254.304 93.7682 257.023 96.2632 261.499 97.7972C272.198 101.567 273.706 96.5312 284.285 100.643C291.23 103.342 291.915 110.808 302.503 114.893C311.067 118.192 314.313 110.707 324.828 114.976C325.873 115.401 338.829 83.6033 337.747 83.1598Z" fill="#C2E8FF"/>
<path d="M303.123 89.7024C302.259 89.0876 301.232 88.7427 300.171 88.7112C299.111 88.6798 298.065 88.9631 297.166 89.5256C296.267 90.088 295.555 90.9042 295.12 91.871C294.685 92.8378 294.547 93.9117 294.723 94.9571C294.899 96.0024 295.381 96.9721 296.108 97.7436C296.835 98.5152 297.775 99.0539 298.809 99.2916C299.843 99.5294 300.924 99.4555 301.916 99.0793C302.907 98.7031 303.765 98.0415 304.381 97.1782C304.79 96.6049 305.081 95.9567 305.239 95.2706C305.397 94.5846 305.418 93.8742 305.302 93.18C305.185 92.4858 304.932 91.8213 304.559 91.2247C304.185 90.628 303.697 90.1107 303.123 89.7024ZM298.499 96.2634C298.058 95.9609 297.716 95.5336 297.519 95.0363C297.322 94.539 297.278 93.9942 297.392 93.4716C297.506 92.9489 297.774 92.4722 298.161 92.1024C298.547 91.7326 299.036 91.4865 299.563 91.3956C300.091 91.3046 300.634 91.373 301.122 91.5919C301.611 91.8109 302.023 92.1704 302.306 92.6246C302.589 93.0787 302.729 93.6069 302.71 94.1415C302.691 94.6761 302.513 95.1929 302.198 95.6258C301.785 96.2056 301.159 96.5983 300.457 96.7178C299.755 96.8373 299.035 96.6739 298.453 96.2634H298.499Z" fill="#FAFBFC"/>
<path d="M292.192 74.8709C291.328 74.2561 290.301 73.9112 289.24 73.8797C288.18 73.8482 287.134 74.1316 286.235 74.694C285.336 75.2565 284.624 76.0727 284.189 77.0395C283.754 78.0063 283.616 79.0802 283.792 80.1255C283.967 81.1708 284.449 82.1406 285.177 82.9121C285.904 83.6836 286.844 84.2223 287.878 84.4601C288.912 84.6978 289.993 84.6239 290.985 84.2477C291.976 83.8716 292.834 83.21 293.45 82.3467C293.858 81.7733 294.15 81.1251 294.308 80.4391C294.466 79.7531 294.487 79.0427 294.371 78.3484C294.254 77.6542 294.001 76.9898 293.627 76.3931C293.254 75.7964 292.766 75.2792 292.192 74.8709ZM287.522 81.4226C287.09 81.1146 286.76 80.6859 286.573 80.1904C286.385 79.695 286.349 79.1551 286.468 78.639C286.587 78.1228 286.857 77.6536 287.243 77.2906C287.629 76.9276 288.114 76.687 288.637 76.5993C289.16 76.5116 289.697 76.5807 290.18 76.7978C290.664 77.0149 291.072 77.3704 291.353 77.8193C291.635 78.2682 291.777 78.7903 291.762 79.3198C291.746 79.8493 291.574 80.3624 291.267 80.7942C291.063 81.0829 290.803 81.3283 290.503 81.5163C290.204 81.7043 289.87 81.8311 289.521 81.8895C289.172 81.9479 288.815 81.9368 288.47 81.8566C288.125 81.7765 287.8 81.629 287.513 81.4226H287.522Z" fill="#FAFBFC"/>
<path d="M287.05 94.0547C285.404 94.9233 283.749 92.3821 284.923 91.3748C287.984 88.7597 299.803 80.9235 301.301 80.9697C301.591 80.9593 301.88 81.0173 302.143 81.139C302.407 81.2608 302.638 81.4429 302.818 81.6705C302.999 81.8982 303.122 82.165 303.18 82.4494C303.238 82.7339 303.228 83.0278 303.151 83.3076C302.827 84.3056 289.917 92.5484 287.05 94.0547Z" fill="#FAFBFC"/>
<path d="M435.995 124.3L432.786 122.452C432.426 122.246 432.133 121.942 431.939 121.575C431.746 121.209 431.661 120.795 431.695 120.382C431.815 118.949 431.815 117.508 431.695 116.075C431.662 115.676 431.74 115.275 431.919 114.917C432.098 114.558 432.373 114.256 432.712 114.042L435.986 112.028C436.43 111.752 436.759 111.325 436.914 110.826C437.068 110.327 437.038 109.789 436.828 109.311L433.498 101.715C433.289 101.231 432.912 100.84 432.435 100.614C431.959 100.388 431.416 100.342 430.909 100.486L427.58 101.41C427.177 101.52 426.752 101.512 426.353 101.388C425.955 101.263 425.601 101.028 425.333 100.708C424.354 99.5516 423.277 98.4818 422.114 97.5107C421.809 97.2516 421.582 96.9137 421.456 96.5339C421.331 96.1542 421.312 95.7472 421.402 95.3576L422.216 91.8184C422.334 91.3082 422.265 90.7725 422.02 90.3093C421.776 89.8461 421.372 89.4863 420.884 89.2957L413.162 86.2832C412.677 86.094 412.14 86.083 411.647 86.2522C411.154 86.4214 410.738 86.7598 410.471 87.2072L408.853 90.0626C408.645 90.4245 408.337 90.7194 407.967 90.9126C407.597 91.1058 407.179 91.1892 406.763 91.1531C405.224 91.0262 403.678 91.0262 402.139 91.1531C401.735 91.1953 401.328 91.1233 400.963 90.9452C400.599 90.7671 400.291 90.4901 400.077 90.1458L398.227 87.198C397.951 86.7522 397.523 86.4209 397.022 86.2647C396.521 86.1086 395.98 86.1381 395.499 86.3478L387.907 89.6838C387.426 89.8921 387.037 90.2667 386.811 90.7386C386.585 91.2106 386.538 91.7483 386.677 92.2527L387.546 95.3946C387.653 95.7948 387.644 96.217 387.522 96.6126C387.399 97.0082 387.167 97.3612 386.852 97.6308C385.673 98.6527 384.581 99.7717 383.588 100.976C383.331 101.293 382.99 101.531 382.604 101.664C382.218 101.796 381.803 101.817 381.405 101.725L378.002 100.939C377.478 100.809 376.924 100.877 376.447 101.132C375.971 101.386 375.605 101.808 375.422 102.316L372.407 110.041C372.212 110.526 372.198 111.064 372.368 111.558C372.538 112.052 372.88 112.468 373.332 112.73L376.291 114.412C376.647 114.615 376.939 114.914 377.132 115.276C377.325 115.637 377.412 116.046 377.383 116.454C377.29 117.96 377.318 119.471 377.466 120.973C377.511 121.379 377.44 121.79 377.261 122.158C377.083 122.526 376.805 122.836 376.458 123.052L373.397 124.965C372.952 125.243 372.623 125.671 372.468 126.172C372.314 126.672 372.344 127.211 372.555 127.691L375.884 135.278C376.096 135.757 376.473 136.145 376.946 136.37C377.42 136.596 377.958 136.644 378.465 136.507L381.97 135.583C382.365 135.474 382.782 135.479 383.175 135.597C383.567 135.714 383.919 135.94 384.189 136.248C385.138 137.329 386.174 138.33 387.287 139.242C387.602 139.5 387.84 139.841 387.972 140.226C388.104 140.611 388.127 141.026 388.036 141.423L387.158 145.221C387.039 145.731 387.109 146.267 387.353 146.73C387.598 147.193 388.001 147.553 388.489 147.744L396.211 150.756C396.696 150.947 397.234 150.959 397.727 150.79C398.22 150.62 398.637 150.281 398.902 149.832L400.752 146.515C400.954 146.16 401.252 145.87 401.612 145.677C401.972 145.484 402.379 145.397 402.786 145.424C404.176 145.517 405.571 145.498 406.957 145.369C407.359 145.332 407.762 145.408 408.123 145.587C408.484 145.767 408.788 146.043 409.001 146.385L411.146 149.823C411.426 150.266 411.854 150.594 412.355 150.748C412.855 150.902 413.394 150.872 413.874 150.664L421.467 147.328C421.947 147.119 422.336 146.745 422.562 146.273C422.788 145.801 422.836 145.263 422.697 144.759L421.68 141.063C421.571 140.665 421.578 140.244 421.699 139.85C421.82 139.456 422.051 139.104 422.364 138.835C423.409 137.922 424.386 136.934 425.286 135.878C425.546 135.575 425.884 135.347 426.264 135.22C426.643 135.093 427.05 135.072 427.441 135.158L431.381 136.082C431.89 136.199 432.425 136.13 432.887 135.885C433.349 135.641 433.707 135.238 433.896 134.751L436.911 127.026C437.119 126.538 437.141 125.991 436.972 125.489C436.803 124.986 436.456 124.563 435.995 124.3ZM401.714 125.612C400.258 125.044 399.004 124.059 398.11 122.779C397.216 121.499 396.721 119.983 396.689 118.423C396.657 116.862 397.088 115.327 397.929 114.012C398.77 112.697 399.983 111.66 401.413 111.033C402.844 110.406 404.428 110.217 405.966 110.49C407.504 110.763 408.926 111.486 410.053 112.567C411.18 113.647 411.961 115.038 412.297 116.562C412.634 118.087 412.51 119.676 411.942 121.13C411.566 122.096 411.002 122.979 410.285 123.727C409.567 124.475 408.708 125.075 407.758 125.491C406.808 125.907 405.785 126.132 404.748 126.153C403.711 126.174 402.68 125.99 401.714 125.612Z" fill="#4DAFFF"/>
<path d="M374.053 64.9833L372.417 64.6506C372.233 64.6119 372.064 64.5219 371.93 64.391C371.796 64.2601 371.701 64.0938 371.658 63.9114C371.504 63.2803 371.3 62.6623 371.048 62.0632C370.978 61.8957 370.956 61.7122 370.984 61.533C371.011 61.3537 371.088 61.1855 371.205 61.0467L372.324 59.7068C372.479 59.5286 372.564 59.3006 372.564 59.0646C372.564 58.8286 372.479 58.6005 372.324 58.4224L369.827 55.6501C369.67 55.4732 369.455 55.3589 369.22 55.3284C368.986 55.2978 368.748 55.353 368.551 55.4838L367.238 56.3432C367.08 56.4425 366.897 56.4952 366.711 56.4952C366.524 56.4952 366.341 56.4425 366.183 56.3432C365.594 55.9833 364.976 55.6742 364.334 55.4191C364.162 55.3574 364.013 55.2464 363.904 55.1001C363.796 54.9538 363.733 54.7786 363.724 54.5967L363.576 52.9611C363.562 52.7203 363.461 52.4929 363.29 52.3224C363.119 52.1519 362.892 52.0503 362.651 52.037L358.905 51.8244C358.669 51.8106 358.434 51.8823 358.246 52.0265C358.058 52.1707 357.927 52.3777 357.879 52.6099L357.583 54.0607C357.545 54.2453 357.455 54.4153 357.324 54.5511C357.193 54.6868 357.026 54.7827 356.843 54.8277C356.155 54.9866 355.483 55.2093 354.836 55.493C354.668 55.5657 354.483 55.5904 354.302 55.5643C354.121 55.5382 353.951 55.4623 353.81 55.3452L352.598 54.3287C352.421 54.1721 352.192 54.0857 351.956 54.0857C351.719 54.0857 351.49 54.1721 351.313 54.3287L348.539 56.8237C348.362 56.9804 348.247 57.1958 348.217 57.4302C348.186 57.6646 348.241 57.9021 348.372 58.0989L349.158 59.3557C349.258 59.5148 349.312 59.699 349.312 59.887C349.312 60.075 349.258 60.2592 349.158 60.4184C348.792 61.0197 348.482 61.6539 348.233 62.3127C348.168 62.4851 348.055 62.6356 347.908 62.7467C347.761 62.8579 347.585 62.9253 347.401 62.9411L345.829 63.052C345.588 63.0653 345.36 63.1669 345.19 63.3374C345.019 63.5079 344.918 63.7353 344.904 63.9761L344.692 67.7186C344.676 67.9546 344.747 68.1882 344.892 68.3754C345.037 68.5626 345.245 68.6905 345.478 68.7351L346.985 69.0493C347.167 69.0873 347.335 69.176 347.469 69.3051C347.604 69.4342 347.699 69.5986 347.743 69.7793C347.912 70.4401 348.135 71.086 348.409 71.7106C348.486 71.8786 348.514 72.065 348.489 72.2481C348.465 72.4312 348.389 72.6037 348.27 72.7456L347.198 74.0116C347.04 74.1904 346.954 74.4203 346.954 74.6584C346.954 74.8965 347.04 75.1265 347.198 75.3053L349.695 78.0775C349.853 78.2527 350.068 78.3658 350.302 78.3963C350.536 78.4268 350.773 78.3727 350.971 78.2438L352.349 77.3198C352.505 77.2202 352.686 77.1673 352.871 77.1673C353.056 77.1673 353.238 77.2202 353.394 77.3198C353.952 77.6539 354.536 77.9413 355.142 78.1791C355.314 78.2446 355.465 78.3573 355.576 78.5045C355.687 78.6516 355.755 78.8271 355.77 79.0108L355.928 80.7666C355.941 81.0073 356.043 81.2347 356.213 81.4052C356.384 81.5757 356.611 81.6774 356.852 81.6906L360.598 81.9032C360.834 81.9187 361.068 81.8474 361.255 81.7028C361.442 81.5581 361.57 81.3501 361.615 81.1177L361.966 79.4267C362.004 79.2456 362.091 79.0786 362.219 78.9447C362.346 78.8108 362.509 78.7152 362.688 78.6689C363.296 78.5119 363.893 78.3111 364.473 78.0683C364.641 77.9956 364.826 77.9709 365.007 77.997C365.188 78.0231 365.358 78.099 365.499 78.2161L366.905 79.3897C367.083 79.5444 367.311 79.6296 367.548 79.6296C367.784 79.6296 368.012 79.5444 368.19 79.3897L370.965 76.8947C371.14 76.7369 371.253 76.5216 371.284 76.2878C371.314 76.054 371.26 75.8169 371.131 75.6195L370.206 74.1686C370.109 74.0102 370.057 73.8279 370.057 73.6419C370.057 73.456 370.109 73.2737 370.206 73.1152C370.532 72.5768 370.816 72.0146 371.057 71.4334C371.126 71.2663 371.238 71.1212 371.383 71.0137C371.529 70.9062 371.7 70.8404 371.88 70.8235L373.73 70.6664C373.97 70.6511 374.196 70.5489 374.367 70.3788C374.537 70.2087 374.639 69.9824 374.654 69.7423L374.867 66.046C374.889 65.7992 374.818 65.553 374.668 65.3562C374.517 65.1594 374.298 65.0263 374.053 64.9833ZM359.497 70.3522C358.792 70.3127 358.115 70.0653 357.551 69.6413C356.987 69.2172 356.561 68.6356 356.328 67.9698C356.095 67.3041 356.064 66.5841 356.24 65.901C356.416 65.2179 356.791 64.6023 357.317 64.1321C357.844 63.6619 358.497 63.3581 359.196 63.2592C359.895 63.1602 360.608 63.2706 361.244 63.5764C361.88 63.8821 362.412 64.3694 362.771 64.9768C363.13 65.5842 363.3 66.2843 363.261 66.9886C363.206 67.9326 362.779 68.8164 362.074 69.4468C361.369 70.0771 360.442 70.4027 359.497 70.3522Z" fill="#FF52AC"/>
<path d="M515.526 117.896C515.333 113.823 516.011 109.756 517.517 105.967C519.022 102.177 521.32 98.7524 524.256 95.9214C529.966 90.3617 533.693 83.0835 534.864 75.2035C537.259 60.2797 537.453 46.7142 543.732 40.2919C550.012 33.8695 559.759 31.2452 567.638 26.6155C575.318 22.0524 584.408 20.4673 593.18 22.1615C606.053 24.7951 617.336 35.0339 621.728 48.0911C629.127 49.699 636.738 51.3716 643.285 55.4283C649.833 59.485 660.301 70.0934 659.006 83.2707C657.259 101.068 654.438 103.24 663.233 108.498C688.1 123.366 696.053 171.012 656.297 171.012C636.987 171.012 598.415 128.8 579.207 130.731C573.159 131.341 568.461 132.256 564.235 132.968C561.563 137.192 557.726 140.555 553.187 142.652C548.647 144.749 543.597 145.49 538.646 144.787C525.903 142.92 515.989 131.434 515.526 117.896Z" fill="#1E2363"/>
<path d="M496.458 167.232C510.533 158.149 533.042 133.531 549.355 121.953C560.379 114.153 566.852 113.275 579.799 111.104C579.799 111.104 580.299 117.803 582.925 118.626C599.774 123.902 607.663 107.666 607.663 107.666C637.025 111.649 643.729 115.493 650.018 131.369C656.306 147.245 657.703 180.391 656.574 189.059C650.573 235.032 585.051 219.432 533.92 206.68C502.894 198.936 528.159 189.235 521.899 184.808C499.343 182.637 474.753 181.251 496.458 167.232Z" fill="#00DC7F"/>
<path d="M165.571 167.158C165.289 167.157 165.011 167.088 164.761 166.956C164.512 166.824 164.298 166.633 164.138 166.401C159.597 160.043 156.74 158.823 149.036 159.877C148.639 159.939 148.233 159.862 147.887 159.66C147.54 159.458 147.273 159.143 147.131 158.768C146.98 158.397 146.959 157.986 147.072 157.602C147.184 157.218 147.424 156.883 147.751 156.652C154.122 152.124 155.325 149.305 154.28 141.598C154.232 141.205 154.316 140.807 154.519 140.467C154.722 140.126 155.032 139.863 155.401 139.717C155.77 139.571 156.176 139.552 156.558 139.661C156.939 139.771 157.272 140.004 157.507 140.323C162.048 146.681 164.905 147.901 172.609 146.847C173.005 146.787 173.41 146.864 173.757 147.066C174.104 147.268 174.371 147.582 174.514 147.956C174.663 148.327 174.683 148.738 174.57 149.121C174.458 149.505 174.22 149.84 173.894 150.072C167.522 154.6 166.302 157.465 167.365 165.162C167.412 165.551 167.327 165.944 167.124 166.279C166.921 166.614 166.612 166.871 166.246 167.011C166.033 167.105 165.804 167.155 165.571 167.158ZM153.253 157.696C158.589 157.696 161.576 159.71 165.497 165.089C164.415 156.91 165.913 153.454 172.618 148.64C164.434 149.721 160.966 148.224 156.148 141.525C157.23 149.703 155.731 153.159 149.027 157.982C150.428 157.793 151.84 157.697 153.253 157.696ZM173.358 149.278L172.821 148.529L173.358 149.268L172.821 148.529L173.358 149.278Z" fill="#1E2363"/>
<path d="M459.374 82.3835C459.055 82.3841 458.744 82.2894 458.481 82.1115C458.217 81.9336 458.013 81.6807 457.894 81.3855C455.545 75.647 453.705 74.2793 447.527 73.6879C447.166 73.6577 446.825 73.5065 446.561 73.2588C446.296 73.011 446.123 72.6813 446.07 72.323C446.016 71.9647 446.086 71.5988 446.266 71.2847C446.447 70.9705 446.728 70.7265 447.065 70.5923C452.817 68.2451 454.186 66.4062 454.778 60.2333C454.808 59.8723 454.959 59.5321 455.207 59.2677C455.455 59.0034 455.785 58.8305 456.144 58.777C456.502 58.7235 456.868 58.7926 457.183 58.9731C457.497 59.1536 457.741 59.4348 457.876 59.7713C460.225 65.5191 462.065 66.8867 468.242 67.4689C468.603 67.5007 468.942 67.6532 469.206 67.9016C469.469 68.15 469.641 68.4798 469.693 68.8378C469.745 69.1958 469.675 69.5609 469.494 69.8743C469.313 70.1876 469.032 70.4308 468.696 70.5645C462.953 72.9117 461.584 74.7506 460.992 80.9327C460.965 81.2927 460.814 81.6322 460.564 81.8934C460.314 82.1545 459.982 82.3212 459.623 82.365C459.541 82.3803 459.457 82.3865 459.374 82.3835ZM448.619 71.9507C454.482 72.6437 456.942 74.4272 459.254 79.8423C459.947 73.9744 461.732 71.5256 467.151 69.2154C461.288 68.5223 458.874 66.7296 456.516 61.3237C455.823 67.1824 454.029 69.585 448.619 71.9507Z" fill="#1E2363"/>
<path d="M502.117 185.825C501.128 189.706 530.213 216.75 544.177 200.357C553.378 189.555 540.45 170.864 520.104 175.318C508.748 184.947 502.117 185.825 502.117 185.825Z" fill="white"/>
<path d="M520.113 191.379C512.974 183.348 495.468 176.03 484.777 174.006C480.523 173.202 475.594 174.006 472.163 174.847C458.134 178.173 454.694 190.972 465.514 191.379C476.334 191.785 473.449 185.575 483.159 190.371C490.761 194.511 520.113 191.379 520.113 191.379Z" fill="#FF8481"/>
<path d="M527.624 174.723C509.175 171.83 501.331 170.263 490.631 168.332C486.368 167.565 479.34 170.818 472.506 173.553C459.725 178.663 451.236 184.513 462.028 185.076C472.82 185.64 485.462 175.928 495.246 180.197C502.913 183.847 492.472 187.913 492.472 187.913C498.612 191.369 501.831 194.576 512.262 195.398C518.153 195.86 523.276 198.494 527.493 196.119C533.301 192.876 534.967 179.001 527.624 174.723Z" fill="#FFA9A9"/>
<path d="M514.223 193.255C508.572 185.428 504.688 180.817 495.986 179.061C492.518 178.359 488.458 179.31 485.638 180.198C474.069 183.894 468.751 190.427 477.601 190.566C486.452 190.704 488.699 186.13 496.522 190.677C502.644 194.613 514.223 193.255 514.223 193.255Z" fill="#FFA9A9"/>
<path d="M470.971 195.398H395.028C392.301 195.398 389.627 194.652 387.294 193.241C384.962 191.831 383.06 189.809 381.794 187.396L356.751 139.64C356.429 139.026 356.272 138.341 356.293 137.649C356.314 136.957 356.514 136.282 356.873 135.69C357.232 135.098 357.738 134.608 358.342 134.269C358.946 133.93 359.628 133.752 360.321 133.753H429.605C432.333 133.752 435.01 134.497 437.344 135.908C439.679 137.319 441.582 139.341 442.848 141.756L470.971 195.398Z" fill="#1E2363"/>
<path d="M413.953 172.372C416.014 171.183 415.96 167.234 413.833 163.553C411.706 159.871 408.31 157.85 406.249 159.04C404.188 160.229 404.242 164.177 406.369 167.859C408.496 171.541 411.891 173.561 413.953 172.372Z" fill="white"/>
<path d="M483.16 189.651C488.218 188.218 495.487 183.894 503.736 186.878C508.526 188.606 507.805 194.955 507.805 194.955L496.181 195.435L483.16 189.651Z" fill="#FF8481"/>
<path d="M508.998 195.398H413.015L411.489 189.068H500.952C502.808 189.069 504.61 189.693 506.068 190.842C507.526 191.99 508.554 193.595 508.988 195.398H508.998Z" fill="#1E2363"/>
<path d="M208.286 131.002C217.171 127.014 223.235 121.249 221.83 118.125C220.426 115.001 212.085 115.702 203.201 119.69C194.316 123.678 188.252 129.443 189.656 132.567C191.061 135.691 199.401 134.99 208.286 131.002Z" fill="#171B4D"/>
<path d="M200.232 78.4932C195.986 80.8388 191.554 82.8293 186.979 84.4442C182.73 86.789 178.295 88.7795 173.718 90.3953C177.519 100.837 186.609 107.408 196.505 105.643C204.402 99.4143 205.521 88.2699 200.232 78.4932Z" fill="#4DAFFF"/>
<path d="M188.555 87.979C197.178 84.1081 203.579 79.6568 202.85 78.0367C202.122 76.4167 194.541 78.2413 185.917 82.1122C177.293 85.9831 170.893 90.4344 171.621 92.0545C172.35 93.6746 179.931 91.8499 188.555 87.979Z" fill="#171B4D"/>
<path d="M196.246 130.51C203.451 130.009 210.247 126.982 215.435 121.962C216.385 121.058 217.009 119.866 217.212 118.571C217.414 117.276 217.183 115.951 216.554 114.8C212.106 106.733 204.144 102.002 195.552 103.527C188.727 108.914 186.97 117.97 190.004 126.628C190.465 127.876 191.329 128.935 192.459 129.638C193.589 130.341 194.922 130.647 196.246 130.51Z" fill="#4DAFFF"/>
<path d="M206.409 116.796C203.579 116.519 200.518 111.252 198.475 107.047C197.91 105.82 197.686 104.464 197.828 103.12C197.969 101.777 198.471 100.497 199.279 99.4143C200.863 97.0633 201.636 94.2601 201.48 91.4303C201.522 91.3074 201.522 91.1743 201.48 91.0514C201.008 90.0072 196.348 91.0514 191.076 93.4448C185.805 95.8382 181.902 98.5827 182.374 99.6269C182.397 99.6647 182.425 99.699 182.457 99.7285C184.622 102.041 187.613 103.406 190.78 103.526C192.093 103.634 193.351 104.094 194.423 104.859C195.494 105.623 196.338 106.664 196.865 107.87C200.5 115.817 199.538 119.347 198.068 121.26C194.757 125.575 195.219 127.211 195.293 127.294C195.765 128.338 200.407 128.218 205.78 125.806C211.153 123.394 214.584 119.901 214.103 118.857C213.992 118.783 213.114 117.341 206.409 116.796Z" fill="white"/>
<path d="M574.13 138.226C578.135 142.495 585.089 143.031 590.629 140.998C596.168 138.965 600.492 135.188 604.617 131.03C607.549 128.073 610.585 124.54 612.037 120.677C613.489 116.815 613.119 112 610.058 109.182C607.284 106.631 603.122 106.28 599.331 106.511C592.034 106.973 581.862 106.41 576.979 112.481C572.096 118.552 568.323 132.016 574.13 138.226Z" fill="white"/>
<path d="M573.474 97.2428C574.796 100.542 578.098 111.732 580.095 118.802C580.71 120.975 582.12 122.838 584.045 124.021C585.971 125.204 588.271 125.62 590.49 125.187C595.498 124.01 600.167 121.692 604.13 118.413C605.817 117.052 606.994 115.161 607.469 113.047C607.944 110.933 607.69 108.721 606.747 106.77C602.993 98.9893 597.065 86.6436 592.922 74.3441L573.474 97.2428Z" fill="#FFA9A9"/>
<path d="M577.025 108.498C577.025 108.498 592.163 100.939 585.875 88.002C581.639 79.2787 574.084 98.9339 574.084 98.9339L577.025 108.498Z" fill="#FF8481"/>
<path d="M547.718 72.2372C549.641 69.7921 550.516 66.6853 550.151 63.5971C549.337 55.2804 551.436 47.8416 557.225 41.6965C559.269 39.5341 560.684 38.9797 563.098 41.5948C569.025 48.0634 576.433 54.0791 582.518 60.3259C583.961 61.7952 586.402 62.1652 587.91 59.3837C588.521 58.2562 590.19 56.5161 591.292 56.0382C592.393 55.5602 593.624 55.7145 594.781 56.0382C597.462 56.7127 598.766 58.9028 599.34 61.4995C600.551 67.0439 596.565 70.8696 593.31 75.0372C593.985 83.3539 587.761 94.7293 570.967 99.9873C565.345 101.752 559.953 101.965 556.458 95.256C555.45 93.3155 552.658 87.3481 550.635 81.9241C549.284 80.2608 544.935 79.8517 544.824 78.1421C544.713 76.4326 545.638 75.1481 547.718 72.2372Z" fill="#FFA9A9"/>
<path d="M555.5 84.3779C555.5 86.2646 558.383 89.9845 563.259 87.8609C567.799 85.8834 569.704 79.7312 566.39 78.1791C565.207 77.6246 562.106 78.7758 559.229 80.6147C556.307 82.2965 555.324 83.4353 555.5 84.3779Z" fill="white"/>
<path d="M566.977 67.265C567.239 65.4465 566.221 63.7955 564.705 63.5774C563.188 63.3593 561.746 64.6566 561.485 66.4752C561.223 68.2937 562.24 69.9448 563.756 70.1629C565.273 70.381 566.715 69.0836 566.977 67.265Z" fill="#1E2363"/>
<path d="M558.593 55.835C556.503 59.1894 565.862 59.3927 566.833 56.7591C567.37 55.105 565.307 53.839 562.801 54.0331C560.989 53.9499 559.111 54.7354 558.593 55.835Z" fill="#1E2363"/>
<path d="M210.811 186.195C209.591 186.195 208.398 185.833 207.384 185.156C206.37 184.479 205.579 183.516 205.112 182.39C204.645 181.263 204.523 180.024 204.761 178.828C204.999 177.633 205.587 176.535 206.449 175.673C207.312 174.811 208.411 174.224 209.607 173.986C210.804 173.748 212.044 173.87 213.171 174.336C214.298 174.803 215.262 175.593 215.94 176.607C216.617 177.62 216.979 178.812 216.979 180.031C216.977 181.665 216.326 183.231 215.17 184.387C214.014 185.542 212.446 186.192 210.811 186.195ZM210.811 175.715C209.957 175.715 209.122 175.969 208.412 176.443C207.701 176.917 207.148 177.591 206.821 178.379C206.494 179.168 206.408 180.036 206.575 180.873C206.742 181.71 207.153 182.479 207.757 183.082C208.361 183.686 209.131 184.097 209.968 184.263C210.806 184.43 211.674 184.344 212.464 184.018C213.253 183.691 213.927 183.138 214.402 182.428C214.876 181.719 215.13 180.884 215.13 180.031C215.127 178.887 214.671 177.791 213.862 176.982C213.053 176.173 211.956 175.718 210.811 175.715Z" fill="#1E2363"/>
<path d="M168.345 74.0576C168.104 74.058 167.867 73.9951 167.657 73.875C167.448 73.755 167.274 73.5822 167.152 73.3738L162.861 66.092C162.769 65.9349 162.708 65.7611 162.683 65.5806C162.658 65.4001 162.669 65.2165 162.715 65.0402C162.761 64.8638 162.841 64.6983 162.951 64.5529C163.061 64.4076 163.199 64.2853 163.356 64.1931C163.674 64.0068 164.052 63.9542 164.409 64.047C164.585 64.0929 164.751 64.1731 164.896 64.283C165.042 64.3928 165.164 64.5303 165.256 64.6874L169.547 71.9692C169.671 72.1802 169.737 72.4203 169.739 72.665C169.74 72.9098 169.676 73.1505 169.554 73.3626C169.432 73.5748 169.256 73.7509 169.043 73.8729C168.831 73.995 168.59 74.0587 168.345 74.0576Z" fill="#1E2363"/>
<path d="M160.818 81.5336C160.563 81.5328 160.314 81.4625 160.096 81.3303L147.926 73.8545C147.612 73.6622 147.388 73.353 147.302 72.9952C147.216 72.6373 147.276 72.26 147.468 71.9463C147.661 71.6326 147.97 71.4082 148.328 71.3224C148.686 71.2366 149.064 71.2965 149.378 71.4889L161.53 78.8815C161.838 79.0119 162.089 79.2493 162.236 79.5499C162.383 79.8506 162.416 80.1942 162.329 80.5174C162.242 80.8405 162.042 81.1214 161.764 81.3082C161.486 81.495 161.15 81.5751 160.818 81.5336Z" fill="#1E2363"/>
<path d="M152.624 93.8977C152.291 93.9016 151.969 93.7859 151.714 93.5718C151.46 93.3577 151.291 93.0594 151.238 92.7312C151.186 92.4031 151.253 92.0669 151.427 91.7841C151.602 91.5012 151.872 91.2904 152.189 91.1902L157.738 89.342C158.088 89.2268 158.469 89.2551 158.797 89.4206C159.126 89.5861 159.375 89.8752 159.491 90.2245C159.606 90.5737 159.577 90.9544 159.412 91.2828C159.246 91.6112 158.957 91.8604 158.607 91.9756L153.059 93.8238C152.919 93.8744 152.772 93.8994 152.624 93.8977Z" fill="#1E2363"/>
<path d="M266.436 160.274C265.948 160.287 265.463 160.193 265.014 160C264.566 159.807 264.164 159.519 263.838 159.156L256.44 150.479C256.123 150.19 255.726 150.004 255.302 149.947C254.877 149.889 254.445 149.962 254.063 150.155L250.04 151.847C249.817 151.931 249.569 151.926 249.349 151.832C249.129 151.738 248.954 151.563 248.861 151.343C248.768 151.123 248.763 150.876 248.849 150.652C248.934 150.429 249.102 150.248 249.319 150.146L253.351 148.455C254.092 148.104 254.924 147.995 255.731 148.143C256.537 148.29 257.277 148.687 257.845 149.278L259.621 151.357C259.7 151.277 259.794 151.214 259.898 151.172L277.071 144.047C277.571 143.829 278.116 143.736 278.66 143.778C279.203 143.82 279.728 143.995 280.188 144.288C280.537 144.524 280.821 144.844 281.013 145.219C281.206 145.593 281.3 146.01 281.288 146.431L281.159 150.701C281.093 151.59 280.788 152.446 280.277 153.178C279.767 153.909 279.068 154.49 278.255 154.859L268.342 159.821C267.751 160.119 267.098 160.274 266.436 160.274ZM260.823 152.78L265.243 157.955C265.546 158.226 265.927 158.393 266.332 158.432C266.737 158.47 267.143 158.377 267.491 158.167L277.395 153.205C277.9 152.977 278.337 152.621 278.662 152.172C278.986 151.722 279.187 151.196 279.245 150.645L279.374 146.376C279.378 146.265 279.352 146.154 279.3 146.055C279.249 145.956 279.172 145.873 279.078 145.812C278.873 145.693 278.642 145.625 278.405 145.616C278.168 145.606 277.933 145.654 277.719 145.757L260.823 152.78Z" fill="white"/>
<path d="M280.087 162.095C281.144 162.095 282.001 161.238 282.001 160.182C282.001 159.125 281.144 158.269 280.087 158.269C279.029 158.269 278.172 159.125 278.172 160.182C278.172 161.238 279.029 162.095 280.087 162.095Z" fill="white"/>
<path d="M271.421 165.967C272.478 165.967 273.335 165.11 273.335 164.054C273.335 162.997 272.478 162.141 271.421 162.141C270.364 162.141 269.507 162.997 269.507 164.054C269.507 165.11 270.364 165.967 271.421 165.967Z" fill="white"/>
<path d="M266.89 154.942C266.678 154.94 266.473 154.864 266.31 154.729C266.147 154.593 266.035 154.406 265.994 154.198C265.953 153.99 265.984 153.774 266.084 153.586C266.183 153.399 266.344 153.251 266.539 153.168L273.65 150.22C273.763 150.174 273.883 150.149 274.005 150.149C274.127 150.149 274.247 150.173 274.36 150.219C274.472 150.265 274.574 150.333 274.66 150.419C274.747 150.505 274.815 150.607 274.862 150.719C274.909 150.831 274.933 150.952 274.933 151.073C274.933 151.195 274.909 151.315 274.863 151.428C274.817 151.54 274.749 151.642 274.663 151.729C274.577 151.815 274.475 151.883 274.362 151.93L267.242 154.868C267.13 154.916 267.011 154.941 266.89 154.942Z" fill="white"/>
</g>
<defs>
<clipPath id="clip0_3416_181592">
<rect width="772" height="250" fill="white"/>
</clipPath>
</defs>
</svg>
