<svg width="1544" height="500" viewBox="0 0 1544 500" fill="none" xmlns="http://www.w3.org/2000/svg">
<g clip-path="url(#clip0_3416_181591)">
<rect width="1544" height="500" fill="#DEEDFF"/>
<path d="M1003.86 455.161C1170.53 443.503 1304.19 413.192 1302.39 387.46C1300.58 361.728 1164 350.319 997.328 361.977C830.653 373.636 696.996 403.947 698.799 429.679C700.602 455.411 837.18 466.82 1003.86 455.161Z" fill="#C2E8FF"/>
<path d="M587.879 287.467C586.26 283.757 586.146 279.563 587.561 275.771C588.975 271.979 591.808 268.883 595.462 267.137L587.86 249.801C545.59 263.297 504.835 281.141 466.251 303.047L473.872 320.419C477.553 319.257 481.535 319.496 485.051 321.09C488.567 322.684 491.369 325.521 492.918 329.055C494.467 332.589 494.654 336.57 493.443 340.234C492.231 343.897 489.707 346.983 486.356 348.899L493.976 366.29C542.065 347.014 578.187 327.479 615.604 313.045L608.002 295.709C604.233 297.211 600.027 297.19 596.273 295.652C592.519 294.115 589.509 291.18 587.879 287.467Z" fill="#4DAFFF"/>
<path d="M675.493 166.32C654.463 157.8 650.709 170.903 631.695 162.624C610.906 153.531 616.048 142.294 595.019 133.756C573.989 125.217 565.259 137.249 548.04 130.059C538.015 125.864 534.538 118.97 527.121 111.153L500.043 177.742C508.607 187.537 514.045 192.527 522.997 195.595C544.396 203.135 547.411 193.063 568.57 201.287C582.46 206.684 583.829 221.617 605.006 229.786C622.133 236.384 628.625 221.414 649.655 229.952C651.745 230.802 677.657 167.207 675.493 166.32Z" fill="#C2E8FF"/>
<path d="M606.245 179.405C604.517 178.175 602.463 177.486 600.342 177.423C598.221 177.36 596.13 177.926 594.331 179.051C592.533 180.176 591.109 181.809 590.239 183.742C589.369 185.676 589.093 187.824 589.444 189.914C589.796 192.005 590.76 193.944 592.215 195.487C593.67 197.031 595.55 198.108 597.617 198.583C599.685 199.059 601.847 198.911 603.831 198.159C605.814 197.406 607.53 196.083 608.761 194.357C609.578 193.21 610.162 191.913 610.478 190.541C610.794 189.169 610.836 187.749 610.602 186.36C610.369 184.972 609.864 183.643 609.116 182.449C608.369 181.256 607.393 180.222 606.245 179.405ZM596.997 192.527C596.114 191.922 595.432 191.067 595.037 190.073C594.643 189.078 594.554 187.989 594.783 186.943C595.011 185.898 595.546 184.945 596.32 184.205C597.094 183.465 598.071 182.973 599.126 182.791C600.181 182.609 601.267 182.746 602.243 183.184C603.22 183.622 604.044 184.341 604.61 185.249C605.176 186.158 605.458 187.214 605.42 188.283C605.381 189.352 605.025 190.386 604.396 191.252C603.57 192.411 602.318 193.197 600.914 193.436C599.51 193.675 598.068 193.348 596.905 192.527H596.997Z" fill="#FAFBFC"/>
<path d="M584.383 149.742C582.655 148.512 580.601 147.823 578.48 147.76C576.359 147.697 574.268 148.263 572.469 149.388C570.671 150.513 569.247 152.146 568.377 154.079C567.507 156.013 567.231 158.161 567.583 160.251C567.934 162.342 568.898 164.281 570.353 165.824C571.808 167.368 573.688 168.445 575.755 168.92C577.823 169.396 579.985 169.248 581.969 168.496C583.952 167.743 585.668 166.42 586.899 164.694C587.716 163.547 588.3 162.25 588.616 160.878C588.932 159.506 588.974 158.086 588.741 156.697C588.507 155.309 588.002 153.98 587.254 152.786C586.507 151.593 585.531 150.559 584.383 149.742ZM575.043 162.845C574.18 162.23 573.52 161.372 573.145 160.381C572.769 159.39 572.697 158.31 572.935 157.278C573.174 156.246 573.713 155.308 574.485 154.581C575.257 153.855 576.228 153.374 577.273 153.199C578.319 153.023 579.393 153.162 580.36 153.596C581.327 154.03 582.144 154.741 582.706 155.639C583.269 156.537 583.553 157.581 583.523 158.64C583.492 159.699 583.148 160.725 582.534 161.589C582.125 162.166 581.606 162.657 581.007 163.033C580.407 163.409 579.739 163.662 579.041 163.779C578.343 163.896 577.629 163.874 576.939 163.713C576.25 163.553 575.599 163.258 575.025 162.845H575.043Z" fill="#FAFBFC"/>
<path d="M574.1 188.11C570.808 189.847 567.497 184.765 569.846 182.75C575.968 177.52 599.606 161.848 602.602 161.94C603.183 161.919 603.76 162.035 604.287 162.279C604.814 162.522 605.277 162.886 605.637 163.342C605.997 163.797 606.245 164.331 606.36 164.899C606.476 165.468 606.455 166.056 606.301 166.616C605.654 168.612 579.834 185.097 574.1 188.11Z" fill="#FAFBFC"/>
<path d="M871.99 248.6L865.573 244.904C864.853 244.492 864.265 243.884 863.879 243.151C863.492 242.418 863.323 241.59 863.39 240.764C863.63 237.898 863.63 235.017 863.39 232.151C863.324 231.352 863.479 230.551 863.838 229.834C864.197 229.117 864.746 228.512 865.425 228.085L871.972 224.056C872.86 223.504 873.518 222.651 873.828 221.653C874.137 220.655 874.075 219.579 873.655 218.623L866.997 203.431C866.579 202.463 865.823 201.68 864.87 201.228C863.918 200.776 862.833 200.685 861.818 200.973L855.159 202.821C854.354 203.041 853.503 203.025 852.706 202.776C851.91 202.527 851.201 202.056 850.665 201.417C848.708 199.104 846.554 196.964 844.229 195.022C843.619 194.504 843.163 193.828 842.912 193.068C842.661 192.309 842.624 191.495 842.804 190.716L844.432 183.637C844.668 182.617 844.529 181.546 844.04 180.619C843.551 179.693 842.745 178.973 841.769 178.592L826.325 172.567C825.354 172.188 824.28 172.166 823.295 172.505C822.309 172.843 821.476 173.52 820.943 174.415L817.706 180.126C817.289 180.85 816.675 181.439 815.934 181.826C815.194 182.212 814.358 182.379 813.526 182.307C810.448 182.053 807.355 182.053 804.278 182.307C803.471 182.391 802.656 182.247 801.926 181.891C801.197 181.535 800.583 180.981 800.153 180.292L796.454 174.396C795.901 173.505 795.046 172.842 794.043 172.53C793.041 172.218 791.96 172.277 790.998 172.696L775.813 179.368C774.853 179.785 774.075 180.534 773.623 181.478C773.171 182.422 773.075 183.497 773.353 184.506L775.092 190.79C775.306 191.59 775.289 192.434 775.043 193.226C774.798 194.017 774.334 194.723 773.705 195.262C771.345 197.306 769.161 199.544 767.176 201.952C766.662 202.586 765.98 203.063 765.208 203.328C764.437 203.592 763.606 203.635 762.811 203.449L756.004 201.879C754.956 201.618 753.848 201.755 752.894 202.264C751.941 202.773 751.211 203.616 750.844 204.632L744.815 220.083C744.424 221.052 744.396 222.129 744.736 223.117C745.076 224.104 745.76 224.937 746.664 225.461L752.583 228.825C753.295 229.23 753.878 229.829 754.264 230.552C754.65 231.275 754.824 232.092 754.765 232.909C754.58 235.921 754.635 238.943 754.932 241.947C755.021 242.759 754.88 243.58 754.523 244.316C754.166 245.051 753.609 245.672 752.916 246.105L746.794 249.931C745.904 250.486 745.245 251.342 744.936 252.344C744.627 253.345 744.689 254.423 745.11 255.383L751.769 270.556C752.192 271.515 752.946 272.29 753.893 272.741C754.84 273.192 755.917 273.289 756.929 273.014L763.939 271.166C764.729 270.949 765.565 270.959 766.35 271.194C767.135 271.429 767.838 271.881 768.378 272.497C770.276 274.658 772.349 276.661 774.574 278.485C775.205 279.001 775.679 279.682 775.944 280.453C776.209 281.223 776.253 282.052 776.072 282.846L774.315 290.442C774.079 291.463 774.218 292.534 774.707 293.46C775.196 294.387 776.002 295.106 776.978 295.488L792.422 301.513C793.393 301.895 794.468 301.919 795.454 301.58C796.441 301.241 797.274 300.562 797.805 299.665L801.504 293.03C801.908 292.321 802.505 291.74 803.224 291.355C803.944 290.969 804.758 290.794 805.573 290.849C808.352 291.034 811.141 290.997 813.914 290.738C814.717 290.665 815.525 290.816 816.247 291.175C816.969 291.534 817.576 292.087 818.002 292.771L822.293 299.646C822.851 300.531 823.708 301.188 824.709 301.496C825.71 301.805 826.788 301.745 827.749 301.328L842.934 294.656C843.895 294.239 844.672 293.49 845.124 292.546C845.576 291.602 845.672 290.527 845.394 289.518L843.359 282.126C843.143 281.33 843.156 280.489 843.399 279.701C843.641 278.912 844.102 278.209 844.728 277.671C846.818 275.845 848.771 273.868 850.573 271.757C851.093 271.15 851.769 270.695 852.528 270.441C853.287 270.187 854.1 270.144 854.882 270.316L862.761 272.164C863.78 272.399 864.849 272.259 865.773 271.771C866.697 271.282 867.414 270.477 867.792 269.503L873.822 254.052C874.238 253.077 874.282 251.983 873.944 250.978C873.607 249.973 872.911 249.126 871.99 248.6ZM803.427 251.224C800.517 250.089 798.009 248.118 796.22 245.558C794.431 242.999 793.442 239.967 793.378 236.846C793.313 233.725 794.177 230.655 795.858 228.024C797.54 225.394 799.965 223.32 802.826 222.067C805.687 220.813 808.856 220.435 811.932 220.981C815.008 221.527 817.853 222.972 820.107 225.134C822.361 227.295 823.923 230.076 824.595 233.125C825.267 236.173 825.019 239.353 823.883 242.261C823.131 244.193 822.005 245.958 820.569 247.454C819.133 248.951 817.416 250.15 815.516 250.983C813.616 251.815 811.57 252.265 809.496 252.307C807.421 252.348 805.359 251.98 803.427 251.224Z" fill="#4DAFFF"/>
<path d="M748.107 129.967L744.833 129.301C744.466 129.224 744.129 129.044 743.86 128.782C743.591 128.52 743.403 128.188 743.316 127.823C743.007 126.561 742.599 125.325 742.096 124.127C741.956 123.792 741.912 123.425 741.968 123.066C742.023 122.708 742.176 122.371 742.41 122.094L744.648 119.414C744.958 119.057 745.128 118.601 745.128 118.129C745.128 117.657 744.958 117.201 744.648 116.845L739.654 111.3C739.341 110.947 738.909 110.718 738.44 110.657C737.971 110.596 737.496 110.706 737.102 110.968L734.475 112.687C734.16 112.885 733.794 112.991 733.421 112.991C733.048 112.991 732.683 112.885 732.367 112.687C731.189 111.967 729.951 111.349 728.668 110.838C728.325 110.715 728.026 110.493 727.809 110.2C727.591 109.908 727.466 109.557 727.447 109.194L727.151 105.922C727.125 105.441 726.921 104.986 726.58 104.645C726.239 104.304 725.784 104.101 725.302 104.074L717.811 103.649C717.337 103.621 716.869 103.765 716.492 104.053C716.115 104.342 715.855 104.756 715.758 105.22L715.166 108.122C715.09 108.491 714.91 108.831 714.648 109.102C714.386 109.374 714.053 109.566 713.686 109.656C712.31 109.973 710.966 110.419 709.673 110.986C709.337 111.132 708.967 111.181 708.604 111.129C708.242 111.076 707.901 110.925 707.62 110.691L705.197 108.658C704.842 108.344 704.385 108.172 703.911 108.172C703.438 108.172 702.981 108.344 702.626 108.658L697.077 113.648C696.723 113.961 696.494 114.392 696.433 114.861C696.372 115.329 696.483 115.804 696.744 116.198L698.316 118.712C698.517 119.03 698.623 119.398 698.623 119.774C698.623 120.15 698.517 120.519 698.316 120.837C697.583 122.04 696.964 123.308 696.467 124.626C696.336 124.97 696.11 125.271 695.816 125.494C695.521 125.716 695.17 125.851 694.802 125.882L691.658 126.104C691.176 126.131 690.721 126.334 690.38 126.675C690.038 127.016 689.835 127.471 689.808 127.952L689.383 135.437C689.352 135.909 689.495 136.377 689.784 136.751C690.074 137.125 690.49 137.381 690.955 137.47L693.97 138.099C694.335 138.175 694.671 138.352 694.939 138.61C695.207 138.869 695.397 139.197 695.487 139.559C695.825 140.88 696.27 142.172 696.818 143.421C696.972 143.757 697.028 144.13 696.979 144.496C696.93 144.863 696.778 145.208 696.541 145.491L694.395 148.023C694.081 148.381 693.907 148.841 693.907 149.317C693.907 149.793 694.081 150.253 694.395 150.611L699.389 156.155C699.705 156.506 700.136 156.732 700.604 156.793C701.072 156.854 701.546 156.746 701.942 156.488L704.697 154.64C705.01 154.441 705.372 154.335 705.742 154.335C706.113 154.335 706.475 154.441 706.787 154.64C707.903 155.308 709.072 155.883 710.283 156.358C710.628 156.489 710.929 156.715 711.152 157.009C711.374 157.303 711.509 157.654 711.541 158.022L711.855 161.533C711.882 162.015 712.085 162.47 712.427 162.811C712.768 163.152 713.223 163.355 713.705 163.381L721.196 163.807C721.668 163.838 722.136 163.695 722.51 163.406C722.885 163.116 723.141 162.7 723.23 162.236L723.933 158.853C724.008 158.491 724.182 158.157 724.437 157.89C724.692 157.622 725.017 157.431 725.376 157.338C726.593 157.024 727.786 156.622 728.945 156.137C729.281 155.991 729.651 155.942 730.014 155.994C730.376 156.046 730.717 156.198 730.998 156.432L733.81 158.78C734.166 159.089 734.623 159.259 735.095 159.259C735.567 159.259 736.024 159.089 736.381 158.78L741.929 153.79C742.28 153.474 742.506 153.043 742.567 152.576C742.628 152.108 742.52 151.634 742.262 151.239L740.413 148.337C740.218 148.021 740.115 147.656 740.115 147.284C740.115 146.912 740.218 146.548 740.413 146.231C741.064 145.154 741.633 144.029 742.114 142.867C742.251 142.533 742.477 142.243 742.767 142.028C743.057 141.813 743.401 141.681 743.76 141.647L747.459 141.333C747.94 141.302 748.393 141.098 748.733 140.758C749.074 140.418 749.278 139.965 749.309 139.485L749.734 132.092C749.779 131.599 749.636 131.106 749.335 130.713C749.034 130.319 748.595 130.053 748.107 129.967ZM718.995 140.705C717.585 140.626 716.23 140.131 715.102 139.283C713.974 138.435 713.123 137.271 712.656 135.94C712.189 134.608 712.128 133.168 712.48 131.802C712.833 130.436 713.582 129.205 714.635 128.264C715.687 127.324 716.995 126.716 718.393 126.519C719.791 126.321 721.216 126.541 722.488 127.153C723.761 127.764 724.823 128.739 725.541 129.954C726.259 131.169 726.601 132.569 726.522 133.977C726.413 135.865 725.559 137.633 724.148 138.894C722.738 140.154 720.885 140.806 718.995 140.705Z" fill="#FF52AC"/>
<path d="M1031.05 235.792C1030.67 227.647 1032.02 219.513 1035.03 211.934C1038.04 204.355 1042.64 197.505 1048.51 191.843C1059.93 180.724 1067.38 166.167 1069.73 150.408C1074.52 120.56 1074.91 93.4289 1087.46 80.5842C1100.02 67.7395 1119.52 62.4907 1135.28 53.2315C1150.64 44.1053 1168.81 40.9351 1186.36 44.3234C1212.11 49.5906 1234.67 70.0682 1243.46 96.1826C1258.25 99.3984 1273.47 102.744 1286.57 110.857C1299.66 118.97 1320.6 140.187 1318.01 166.542C1314.52 202.137 1308.88 206.481 1326.46 216.997C1376.2 246.733 1392.11 342.024 1312.59 342.024C1273.97 342.024 1196.83 257.601 1158.41 261.463C1146.32 262.683 1136.92 264.513 1128.47 265.936C1123.13 274.385 1115.45 281.111 1106.37 285.304C1097.29 289.498 1087.19 290.981 1077.29 289.574C1051.8 285.84 1031.98 262.868 1031.05 235.792Z" fill="#1E2363"/>
<path d="M992.915 334.465C1021.07 316.298 1066.08 267.063 1098.71 243.905C1120.76 228.307 1133.7 226.551 1159.6 222.208C1159.6 222.208 1160.6 235.607 1165.85 237.252C1199.55 247.805 1215.33 215.333 1215.33 215.333C1274.05 223.299 1287.46 230.987 1300.03 262.738C1312.61 294.49 1315.4 360.783 1313.15 378.119C1301.14 470.064 1170.1 438.865 1067.84 413.361C1005.79 397.873 1056.32 378.47 1043.8 369.617C998.686 365.274 949.506 362.502 992.915 334.465Z" fill="#00DC7F"/>
<path d="M331.141 334.317C330.577 334.315 330.021 334.176 329.521 333.912C329.022 333.648 328.594 333.267 328.275 332.802C319.193 320.087 313.478 317.647 298.071 319.754C297.278 319.878 296.466 319.725 295.772 319.321C295.078 318.917 294.545 318.287 294.261 317.536C293.96 316.794 293.918 315.973 294.143 315.204C294.368 314.436 294.846 313.766 295.5 313.304C308.244 304.248 310.648 298.611 308.558 283.197C308.463 282.411 308.632 281.615 309.038 280.934C309.444 280.253 310.064 279.726 310.801 279.434C311.539 279.143 312.352 279.104 313.114 279.323C313.876 279.543 314.544 280.008 315.013 280.647C324.095 293.362 329.81 295.802 345.217 293.695C346.01 293.575 346.82 293.729 347.513 294.132C348.206 294.536 348.74 295.164 349.027 295.913C349.325 296.655 349.365 297.476 349.14 298.243C348.915 299.011 348.439 299.68 347.787 300.145C335.044 309.201 332.603 314.93 334.73 330.325C334.822 331.103 334.652 331.888 334.247 332.558C333.841 333.228 333.223 333.743 332.492 334.022C332.066 334.21 331.607 334.311 331.141 334.317ZM306.505 315.392C317.177 315.392 323.151 319.421 330.993 330.177C328.829 313.821 331.826 306.909 345.235 297.28C328.866 299.443 321.931 296.449 312.294 283.049C314.458 299.406 311.462 306.318 298.053 315.965C300.854 315.586 303.678 315.394 306.505 315.392ZM346.715 298.556L345.642 297.058L346.715 298.537L345.642 297.058L346.715 298.556Z" fill="#1E2363"/>
<path d="M918.747 164.767C918.111 164.769 917.489 164.579 916.961 164.223C916.434 163.868 916.025 163.362 915.788 162.771C911.09 151.294 907.41 148.559 895.055 147.376C894.332 147.316 893.651 147.014 893.122 146.518C892.593 146.023 892.247 145.363 892.14 144.646C892.033 143.93 892.171 143.198 892.532 142.57C892.893 141.942 893.456 141.454 894.13 141.185C905.634 136.491 908.371 132.813 909.555 120.467C909.616 119.745 909.918 119.065 910.414 118.536C910.91 118.007 911.57 117.661 912.287 117.555C913.004 117.448 913.737 117.586 914.365 117.947C914.994 118.308 915.482 118.87 915.751 119.543C920.449 131.039 924.13 133.774 936.485 134.938C937.206 135.002 937.885 135.307 938.411 135.804C938.938 136.3 939.281 136.96 939.386 137.676C939.491 138.392 939.351 139.122 938.989 139.749C938.627 140.376 938.064 140.862 937.391 141.13C925.905 145.824 923.168 149.502 921.984 161.866C921.93 162.586 921.627 163.265 921.128 163.787C920.629 164.309 919.964 164.643 919.247 164.731C919.082 164.761 918.915 164.774 918.747 164.767ZM897.237 143.902C908.963 145.288 913.883 148.855 918.507 159.685C919.894 147.949 923.464 143.052 934.302 138.431C922.576 137.045 917.749 133.46 913.032 122.648C911.645 134.365 908.057 139.171 897.237 143.902Z" fill="#1E2363"/>
<path d="M1004.23 371.65C1002.26 379.412 1060.42 433.501 1088.35 400.715C1106.76 379.11 1080.9 341.728 1040.21 350.637C1017.5 369.894 1004.23 371.65 1004.23 371.65Z" fill="white"/>
<path d="M1040.23 382.758C1025.95 366.697 990.936 352.06 969.555 348.012C961.047 346.404 951.189 348.012 944.327 349.694C916.269 356.347 909.388 381.944 931.028 382.758C952.668 383.571 946.898 371.151 966.318 380.743C981.521 389.023 1040.23 382.758 1040.23 382.758Z" fill="#FF8481"/>
<path d="M1055.25 349.445C1018.35 343.661 1002.66 340.527 981.263 336.665C972.736 335.131 958.679 341.636 945.011 347.107C919.45 357.327 902.471 369.026 924.056 370.153C945.64 371.28 970.923 351.856 990.492 360.395C1005.82 367.695 984.943 375.827 984.943 375.827C997.224 382.739 1003.66 389.152 1024.52 390.797C1036.31 391.721 1046.55 396.988 1054.99 392.239C1066.6 385.752 1069.93 358.002 1055.25 349.445Z" fill="#FFA9A9"/>
<path d="M1028.45 386.509C1017.14 370.856 1009.38 361.633 991.972 358.122C985.036 356.717 976.917 358.621 971.275 360.395C948.137 367.788 937.502 380.854 955.203 381.131C972.903 381.409 977.398 372.26 993.045 381.353C1005.29 389.226 1028.45 386.509 1028.45 386.509Z" fill="#FFA9A9"/>
<path d="M941.941 390.797H790.055C784.602 390.796 779.253 389.304 774.588 386.482C769.923 383.661 766.119 379.619 763.588 374.792L713.502 279.279C712.858 278.053 712.543 276.681 712.585 275.297C712.628 273.913 713.028 272.564 713.746 271.38C714.464 270.195 715.476 269.217 716.684 268.538C717.892 267.86 719.255 267.504 720.641 267.507H859.21C864.666 267.505 870.019 268.995 874.688 271.816C879.357 274.638 883.164 278.682 885.696 283.512L941.941 390.797Z" fill="#1E2363"/>
<path d="M827.905 344.744C832.027 342.366 831.92 334.469 827.666 327.106C823.411 319.742 816.62 315.701 812.498 318.079C808.376 320.458 808.483 328.355 812.737 335.718C816.992 343.081 823.782 347.123 827.905 344.744Z" fill="white"/>
<path d="M966.318 379.302C976.435 376.437 990.973 367.788 1007.47 373.757C1017.05 377.213 1015.61 389.91 1015.61 389.91L992.36 390.871L966.318 379.302Z" fill="#FF8481"/>
<path d="M1017.99 390.797H826.029L822.977 378.137H1001.9C1005.62 378.138 1009.22 379.387 1012.14 381.684C1015.05 383.98 1017.11 387.19 1017.98 390.797H1017.99Z" fill="#1E2363"/>
<path d="M416.571 262.005C434.341 254.029 446.469 242.498 443.66 236.251C440.851 230.003 424.17 231.404 406.401 239.38C388.631 247.356 376.503 258.887 379.312 265.134C382.121 271.382 398.802 269.981 416.571 262.005Z" fill="#171B4D"/>
<path d="M400.463 156.987C391.972 161.678 383.107 165.659 373.958 168.889C365.46 173.579 356.589 177.56 347.436 180.791C355.037 201.675 373.218 214.816 393.009 211.286C408.804 198.829 411.042 176.54 400.463 156.987Z" fill="#4DAFFF"/>
<path d="M377.109 175.959C394.356 168.217 407.157 159.314 405.7 156.074C404.244 152.834 389.081 156.483 371.834 164.225C354.586 171.967 341.785 180.869 343.242 184.109C344.699 187.35 359.861 183.7 377.109 175.959Z" fill="#171B4D"/>
<path d="M392.491 261.02C406.901 260.019 420.493 253.964 430.87 243.924C432.769 242.116 434.018 239.732 434.423 237.142C434.827 234.552 434.365 231.901 433.108 229.601C424.211 213.467 408.287 204.004 391.104 207.053C377.454 217.828 373.94 235.94 380.007 253.257C380.929 255.753 382.657 257.871 384.918 259.276C387.178 260.682 389.843 261.295 392.491 261.02Z" fill="#4DAFFF"/>
<path d="M412.818 233.593C407.158 233.038 401.036 222.504 396.949 214.095C395.819 211.641 395.372 208.928 395.655 206.241C395.938 203.555 396.941 200.994 398.558 198.829C401.725 194.127 403.271 188.521 402.96 182.861C403.043 182.615 403.043 182.349 402.96 182.103C402.016 180.015 392.695 182.103 382.152 186.89C371.61 191.677 363.804 197.166 364.748 199.254C364.793 199.33 364.849 199.398 364.914 199.457C369.244 204.083 375.226 206.813 381.56 207.053C384.185 207.268 386.702 208.188 388.845 209.718C390.988 211.247 392.676 213.328 393.73 215.74C400.999 231.634 399.076 238.694 396.135 242.519C389.513 251.15 390.438 254.422 390.586 254.588C391.529 256.676 400.814 256.436 411.56 251.612C422.306 246.789 429.168 239.803 428.206 237.714C427.984 237.566 426.227 234.683 412.818 233.593Z" fill="white"/>
<path d="M1148.26 276.452C1156.27 284.99 1170.18 286.062 1181.26 281.996C1192.34 277.93 1200.98 270.377 1209.23 262.06C1215.1 256.146 1221.17 249.08 1224.07 241.355C1226.98 233.63 1226.24 224.001 1220.12 218.364C1214.57 213.263 1206.24 212.561 1198.66 213.023C1184.07 213.947 1163.72 212.82 1153.96 224.962C1144.19 237.104 1136.64 264.032 1148.26 276.452Z" fill="white"/>
<path d="M1146.95 194.486C1149.59 201.084 1156.19 223.465 1160.19 237.603C1161.42 241.95 1164.24 245.676 1168.09 248.042C1171.94 250.408 1176.54 251.24 1180.98 250.374C1191 248.021 1200.33 243.384 1208.26 236.827C1211.63 234.105 1213.99 230.323 1214.94 226.095C1215.89 221.867 1215.38 217.443 1213.49 213.54C1205.98 197.979 1194.13 173.288 1185.84 148.689L1146.95 194.486Z" fill="#FFA9A9"/>
<path d="M1154.05 216.997C1154.05 216.997 1184.33 201.879 1171.75 176.004C1163.28 158.558 1148.17 197.868 1148.17 197.868L1154.05 216.997Z" fill="#FF8481"/>
<path d="M1095.44 144.475C1099.28 139.584 1101.03 133.371 1100.3 127.195C1098.67 110.561 1102.87 95.6835 1114.45 83.3932C1118.54 79.0686 1121.37 77.9597 1126.19 83.1899C1138.05 96.127 1152.86 108.159 1165.03 120.652C1167.92 123.591 1172.8 124.331 1175.82 118.768C1177.04 116.513 1180.38 113.033 1182.58 112.077C1184.79 111.121 1187.25 111.429 1189.56 112.077C1194.92 113.426 1197.53 117.806 1198.68 122.999C1201.1 134.088 1193.13 141.74 1186.62 150.075C1187.97 166.708 1175.52 189.459 1141.93 199.975C1130.69 203.505 1119.91 203.93 1112.91 190.512C1110.9 186.631 1105.31 174.696 1101.27 163.849C1098.57 160.522 1089.87 159.704 1089.65 156.285C1089.42 152.865 1091.27 150.296 1095.44 144.475Z" fill="#FFA9A9"/>
<path d="M1111 168.756C1111 172.529 1116.76 179.969 1126.52 175.722C1135.6 171.767 1139.41 159.463 1132.78 156.358C1130.41 155.25 1124.21 157.552 1118.46 161.23C1112.61 164.593 1110.65 166.871 1111 168.756Z" fill="white"/>
<path d="M1133.95 134.531C1134.48 130.894 1132.44 127.592 1129.41 127.155C1126.38 126.719 1123.49 129.314 1122.97 132.951C1122.44 136.588 1124.48 139.89 1127.51 140.326C1130.55 140.763 1133.43 138.168 1133.95 134.531Z" fill="#1E2363"/>
<path d="M1117.19 111.67C1113.01 118.379 1131.72 118.785 1133.67 113.518C1134.74 110.21 1130.62 107.678 1125.6 108.066C1121.98 107.9 1118.22 109.471 1117.19 111.67Z" fill="#1E2363"/>
<path d="M421.622 372.389C419.182 372.389 416.797 371.666 414.768 370.312C412.739 368.957 411.158 367.032 410.224 364.78C409.291 362.527 409.046 360.049 409.522 357.657C409.998 355.266 411.173 353.07 412.898 351.346C414.624 349.622 416.822 348.448 419.215 347.972C421.608 347.496 424.089 347.74 426.343 348.673C428.597 349.606 430.524 351.186 431.879 353.214C433.235 355.241 433.958 357.624 433.958 360.062C433.953 363.33 432.652 366.463 430.34 368.773C428.027 371.084 424.892 372.385 421.622 372.389ZM421.622 351.431C419.913 351.431 418.243 351.937 416.823 352.886C415.403 353.834 414.296 355.182 413.642 356.759C412.988 358.336 412.817 360.072 413.15 361.746C413.484 363.42 414.306 364.958 415.514 366.165C416.722 367.372 418.261 368.194 419.937 368.527C421.612 368.86 423.349 368.689 424.927 368.036C426.505 367.383 427.854 366.277 428.804 364.857C429.753 363.438 430.259 361.769 430.259 360.062C430.254 357.775 429.343 355.582 427.724 353.965C426.105 352.347 423.911 351.436 421.622 351.431Z" fill="#1E2363"/>
<path d="M336.69 148.116C336.208 148.116 335.733 147.991 335.314 147.751C334.896 147.511 334.547 147.165 334.304 146.748L325.722 132.185C325.538 131.87 325.417 131.523 325.367 131.162C325.317 130.801 325.338 130.433 325.43 130.081C325.522 129.728 325.682 129.397 325.902 129.106C326.122 128.816 326.397 128.571 326.712 128.387C327.347 128.014 328.104 127.909 328.817 128.094C329.17 128.186 329.502 128.347 329.792 128.566C330.083 128.786 330.328 129.061 330.513 129.375L339.095 143.939C339.343 144.361 339.475 144.841 339.477 145.331C339.479 145.82 339.352 146.301 339.108 146.726C338.863 147.15 338.511 147.502 338.086 147.746C337.662 147.99 337.18 148.118 336.69 148.116Z" fill="#1E2363"/>
<path d="M321.635 163.067C321.126 163.066 320.627 162.925 320.192 162.661L295.852 147.709C295.224 147.324 294.775 146.706 294.603 145.99C294.431 145.275 294.551 144.52 294.936 143.893C295.321 143.265 295.94 142.817 296.656 142.645C297.372 142.473 298.128 142.593 298.755 142.978L323.059 157.763C323.676 158.024 324.177 158.499 324.471 159.1C324.765 159.701 324.831 160.389 324.658 161.035C324.484 161.681 324.083 162.243 323.527 162.617C322.971 162.99 322.299 163.15 321.635 163.067Z" fill="#1E2363"/>
<path d="M305.248 187.796C304.582 187.803 303.937 187.572 303.428 187.144C302.919 186.716 302.581 186.119 302.476 185.463C302.371 184.806 302.505 184.134 302.854 183.568C303.203 183.003 303.744 182.581 304.378 182.38L315.476 178.684C316.175 178.454 316.937 178.51 317.594 178.841C318.251 179.172 318.75 179.751 318.981 180.449C319.211 181.148 319.155 181.909 318.823 182.566C318.492 183.223 317.913 183.721 317.214 183.951L306.117 187.648C305.838 187.749 305.544 187.799 305.248 187.796Z" fill="#1E2363"/>
<path d="M532.873 320.549C531.896 320.574 530.926 320.387 530.028 320.001C529.131 319.615 528.328 319.039 527.676 318.312L512.879 300.958C512.246 300.38 511.453 300.009 510.603 299.893C509.754 299.778 508.89 299.924 508.126 300.311L500.08 303.693C499.633 303.863 499.138 303.852 498.698 303.665C498.258 303.477 497.908 303.126 497.722 302.686C497.535 302.247 497.526 301.752 497.697 301.305C497.868 300.859 498.205 300.496 498.637 300.293L506.702 296.911C508.183 296.209 509.848 295.99 511.461 296.285C513.074 296.58 514.554 297.375 515.69 298.555L519.242 302.714C519.399 302.554 519.588 302.428 519.796 302.344L554.143 288.095C555.141 287.657 556.232 287.472 557.32 287.556C558.407 287.64 559.456 287.99 560.376 288.575C561.074 289.048 561.642 289.688 562.026 290.437C562.411 291.187 562.6 292.021 562.577 292.863L562.318 301.402C562.186 303.181 561.577 304.892 560.555 306.355C559.533 307.819 558.136 308.98 556.51 309.718L536.683 319.643C535.501 320.239 534.196 320.549 532.873 320.549ZM521.646 305.56L530.487 315.91C531.092 316.452 531.855 316.787 532.664 316.863C533.473 316.94 534.286 316.755 534.981 316.335L554.79 306.41C555.801 305.954 556.674 305.242 557.323 304.343C557.972 303.445 558.374 302.393 558.489 301.291L558.748 292.752C558.755 292.529 558.704 292.308 558.601 292.111C558.497 291.913 558.344 291.746 558.156 291.625C557.747 291.386 557.285 291.251 556.811 291.231C556.337 291.212 555.865 291.309 555.438 291.514L521.646 305.56Z" fill="white"/>
<path d="M560.173 324.19C562.287 324.19 564.001 322.477 564.001 320.364C564.001 318.251 562.287 316.538 560.173 316.538C558.058 316.538 556.344 318.251 556.344 320.364C556.344 322.477 558.058 324.19 560.173 324.19Z" fill="white"/>
<path d="M542.842 331.933C544.957 331.933 546.671 330.221 546.671 328.108C546.671 325.995 544.957 324.282 542.842 324.282C540.728 324.282 539.014 325.995 539.014 328.108C539.014 330.221 540.728 331.933 542.842 331.933Z" fill="white"/>
<path d="M533.779 309.885C533.355 309.88 532.945 309.729 532.619 309.458C532.292 309.187 532.069 308.812 531.987 308.395C531.904 307.979 531.968 307.548 532.166 307.173C532.365 306.798 532.686 306.502 533.077 306.336L547.3 300.441C547.524 300.347 547.765 300.299 548.009 300.298C548.252 300.298 548.493 300.346 548.718 300.438C548.943 300.531 549.148 300.667 549.32 300.839C549.492 301.01 549.629 301.214 549.723 301.439C549.816 301.663 549.865 301.904 549.865 302.147C549.865 302.39 549.818 302.631 549.725 302.856C549.632 303.081 549.496 303.285 549.324 303.457C549.153 303.63 548.949 303.766 548.724 303.86L534.482 309.737C534.26 309.832 534.021 309.882 533.779 309.885Z" fill="white"/>
</g>
<defs>
<clipPath id="clip0_3416_181591">
<rect width="1544" height="500" fill="white"/>
</clipPath>
</defs>
</svg>
