<svg width="256" height="256" viewBox="0 0 256 256" fill="none" xmlns="http://www.w3.org/2000/svg">
<g clip-path="url(#clip0_3416_181680)">
<path d="M0 121.701C0 64.3374 0 35.5993 17.8278 17.8278C35.6555 0.056239 64.3374 0 121.701 0H134.299C191.663 0 220.344 0 238.172 17.8278C256 35.6555 256 64.3374 256 121.701V134.299C256 191.663 256 220.344 238.172 238.172C220.344 256 191.663 256 134.299 256H121.701C64.3374 256 35.6555 256 17.8278 238.172C0 220.344 0 191.663 0 134.299V121.701Z" fill="#0077FF"/>
<path d="M128 213.333C175.129 213.333 213.334 175.128 213.334 128C213.334 80.8718 175.129 42.6667 128 42.6667C80.872 42.6667 42.667 80.8718 42.667 128C42.667 175.128 80.872 213.333 128 213.333Z" fill="white"/>
<path fill-rule="evenodd" clip-rule="evenodd" d="M207.402 32.1037V48.5376H223.947C226.046 48.5255 228.102 49.1209 229.857 50.2489C231.612 51.3769 232.988 52.9873 233.812 54.8781C234.635 56.769 234.871 58.856 234.488 60.8773C234.105 62.8986 233.122 64.7642 231.66 66.2401L208.991 89.3052C207.996 90.3265 206.799 91.1392 205.473 91.6942C204.147 92.2493 202.72 92.5351 201.278 92.5343H179.846L157.648 116.061C159.344 120.022 160.205 124.278 160.18 128.574C160.18 134.789 158.297 140.865 154.771 146.033C151.245 151.201 146.234 155.229 140.37 157.608C134.506 159.986 128.054 160.609 121.829 159.396C115.605 158.183 109.887 155.19 105.399 150.795C100.911 146.4 97.8548 140.801 96.6166 134.705C95.3784 128.608 96.0139 122.29 98.4427 116.547C100.872 110.805 104.985 105.897 110.262 102.444C115.539 98.9905 121.743 97.1474 128.09 97.1474C131.034 97.1469 133.965 97.5349 136.804 98.3006L162.299 70.9108V53.6119C162.301 52.1865 162.6 50.7765 163.177 49.4678C163.754 48.1592 164.597 46.9794 165.655 46.0004L189.208 24.1462C190.731 22.7578 192.633 21.8337 194.684 21.4866C196.734 21.1395 198.843 21.3845 200.754 22.1916C202.664 22.9987 204.293 24.333 205.442 26.0317C206.592 27.7305 207.211 29.72 207.225 31.7577L207.402 32.1037Z" fill="#313131"/>
</g>
<defs>
<clipPath id="clip0_3416_181680">
<rect width="256" height="256" fill="white"/>
</clipPath>
</defs>
</svg>
